<svg xmlns="http://www.w3.org/2000/svg" width="464" height="498" xmlns:v="https://vecta.io/nano"><path d="M212.586 3.223c7.49 5.514 11.639 12.079 15.976 20.215q1.844 3.374 3.692 6.746l1.883 3.448C237 38.81 239.997 43.904 243 49c10.063 17.149 19.715 34.526 29.182 52.01 1.818 3.354 3.634 6.685 5.607 9.95 2.577 4.34 2.615 9.108 2.211 14.04-2.187 6.988-5.586 12.904-9.75 18.875l-1.615 2.369q-1.59 2.332-3.191 4.657L256 165l-1.245 1.868c-6.744 10.143-12.853 20.503-18.689 31.192-6.029 10.967-10.782 18.845-23.066 22.94-10.028 1.274-18.53-2.444-26.5-8.312-14.276-11.173-26.815-31.852-32.25-49.063-.732-7.687-.111-15.273.804-22.914l.34-2.956q.556-4.798 1.126-9.595l.785-6.748q.824-7.065 1.657-14.129 1.057-8.974 2.098-17.952.81-6.972 1.63-13.943l.77-6.61c1.223-10.5 2.497-20.983 4.136-31.429l.365-2.323c1.952-12.038 5.193-22.727 15.02-30.585 9.077-6.478 19.91-6.306 29.605-1.218M361 289a84 84 0 0 1 10 9l1.828 1.865c5.512 5.854 9.244 12.044 12.86 19.197l1.799 3.519c7.1 14.078 12.855 28.716 18.513 43.419l1.194 3.057c26.184 67.247 26.184 67.247 17.845 90.666-3.763 8.248-8.523 13.77-16.789 17.527-11.206 2.586-21.253 2.107-31.25-4.062a280 280 0 0 1-4.228-2.93l-6.417-4.477-33.617-23.863-2.256-1.632a2654 2654 0 0 1-4.573-3.318 446 446 0 0 0-11.624-8.183l-2.307-1.578a324 324 0 0 0-4.321-2.898c-6.46-4.426-12.11-10.418-13.657-18.309-.541-8.322.722-16.006 2.438-24.125 2.45-11.876 3.749-22.826 3.747-34.975l.04-6.002c.011-7.992-.541-15.577-1.757-23.467-1.566-11.486-.816-21.289 5.282-31.306 16.763-15.832 40.033-8.55 57.25 2.875" fill="#b7c62d"/><path d="M132.623 198.588c4.908 5.577 8.962 11.563 13.002 17.787 10.852 16.487 22.104 32.938 35.14 47.805 7.624 8.715 12.108 15.938 11.606 27.808-1.382 11.215-6.964 18.652-15.5 25.793C163.68 327.304 144.18 332.331 128 331c-13.003-2.123-23.148-10.219-33.75-17.5q-2.73-1.846-5.46-3.688a1573 1573 0 0 1-41.665-29.187l-2.199-1.59a2365 2365 0 0 1-23.79-17.456 330 330 0 0 0-4.333-3.148C8.486 252.417 3.043 244.43.313 234.5c-1.035-8.274.485-15.265 4.312-22.625 7.401-8.96 15.007-14.126 26.744-15.439 5.265-.482 10.54-.773 15.818-1.061q2.914-.175 5.827-.354l15.011-.856q4.372-.243 8.743-.502 6.828-.402 13.657-.773 2.542-.138 5.086-.283c29.32-1.643 29.32-1.643 37.112 5.981" fill="#78ac35"/><path d="M249.324 332.594c7.594 3.222 13.614 10.794 16.867 18.226L267 353l.902 2.43c6.301 20.499 1.658 44.775-7.902 63.57-10.614 17.66-33.172 28.193-50.039 39.086q-3.786 2.447-7.559 4.914c-15.268 9.966-30.609 19.91-46.527 28.813l-2.168 1.218c-9.164 5.031-18.173 6.692-28.559 4.317-7.897-2.849-13.927-7.654-18.085-14.973-6.04-13.51-1.786-26.101 3.124-39.125L115 431l.863-2.175a6499 6499 0 0 1 12.304-30.761q2.869-7.13 5.657-14.29l1.21-3.067a439 439 0 0 0 2.052-5.302c2.962-7.437 7.013-13.247 14.49-16.582 5.26-1.786 10.724-2.687 16.174-3.698 21.657-4.28 41.865-10.52 61.453-20.867 6.576-3.314 12.99-3.486 20.121-1.664" fill="#77ac35"/><path d="M455.313 115.125c5.18 5.542 8.332 12.434 8.937 20-.83 12.867-7.751 21.294-15.87 30.726-3.409 3.965-6.675 8.017-9.88 12.149-4.481 5.765-9.136 11.356-13.875 16.91-3.951 4.634-7.783 9.366-11.625 14.09a3750 3750 0 0 1-14.216 17.325l-3.683 4.46a545 545 0 0 0-9.601 11.965c-4.7 5.893-9.294 10.128-16.875 11.762-9.097.609-16.042-2.926-24.102-6.602-8.037-3.652-16.253-6.853-24.46-10.097l-24.872-10.063-3.326-1.402c-6.703-3.153-10.498-7.086-13.138-14.02-3.858-12.36.47-24.685 6.21-35.828 12.153-22.53 15.153-20.53 19.976-25.5 2.17-1.361 2.17-1.361 3.274-2.75 6.535-8.029 16.281-10.356 25.813-13.25l3.056-.937L364 126l2.152-.634c16.15-4.754 32.333-9.384 48.66-13.491l3.427-.895c13.47-3.286 25.221-3.458 37.074 4.145" fill="#fdd105"/><path d="m27 199-1 2c-3.645.89-6.427 1.237-10 0 7.429-3.571 7.429-3.571 11-2" fill="#82b245"/><path d="M142 366c1.214 3.642.667 4.332-.937 7.688l-1.153 2.449L139 378h-2q.68-2.159 1.375-4.312l.773-2.426C140 369 140 369 142 366m10-6c-.812 1.938-.812 1.938-2 4l-3 1-2-2c4.75-3 4.75-3 7-3" fill="#82b545"/></svg>